HIERARCHY
ROOT Hips
{
	OFFSET	0.00	0.00	0.00
	CHANNELS 6 Xposition Yposition Zposition Zrotation Xrotation Yrotation
	JOINT LeftHip
	{
		OFFSET	 3.430000	 0.000000	 0.000000
		CHANNELS 3 Zrotation Xrotation Yrotation
		JOINT LeftKnee
		{
			OFFSET	 0.000000	-18.469999	 0.000000
			CHANNELS 3 Zrotation Xrotation Yrotation
			JOINT LeftAnkle
			{
				OFFSET	 0.000000	-17.950001	 0.000000
				CHANNELS 3 Zrotation Xrotation Yrotation
				End Site 
				{
					OFFSET	 0.000000	-3.119996	 0.000000
				}
			}
		}
	}
	JOINT RightHip
	{
		OFFSET	-3.430000	 0.000000	 0.000000
		CHANNELS 3 Zrotation Xrotation Yrotation
		JOINT RightKnee
		{
			OFFSET	 0.000000	-18.809999	 0.000000
			CHANNELS 3 Zrotation Xrotation Yrotation
			JOINT RightAnkle
			{
				OFFSET	 0.000000	-17.570000	 0.000000
				CHANNELS 3 Zrotation Xrotation Yrotation
				End Site 
				{
					OFFSET	 0.000000	-3.250000	 0.000000
				}
			}
		}
	}
	JOINT Chest
	{
		OFFSET	 0.000000	 4.570000	 0.000000
		CHANNELS 3 Zrotation Xrotation Yrotation
		JOINT LeftCollar
		{
			OFFSET	 1.060000	 15.330000	 1.760000
			CHANNELS 3 Zrotation Xrotation Yrotation
			JOINT LeftShoulder
			{
				OFFSET	 5.810000	 0.000000	 0.000000
				CHANNELS 3 Zrotation Xrotation Yrotation
				JOINT LeftElbow
				{
					OFFSET	 0.000000	-12.080000	 0.000000
					CHANNELS 3 Zrotation Xrotation Yrotation
					JOINT LeftWrist
					{
						OFFSET	 0.000000	-9.820000	 0.000000
						CHANNELS 3 Zrotation Xrotation Yrotation
						End Site 
						{
							OFFSET	 0.000000	-7.369996	 0.000000
						}
					}
				}
			}
		}
		JOINT RightCollar
		{
			OFFSET	-1.060000	 15.330000	 1.760000
			CHANNELS 3 Zrotation Xrotation Yrotation
			JOINT RightShoulder
			{
				OFFSET	-6.060000	 0.000000	 0.000000
				CHANNELS 3 Zrotation Xrotation Yrotation
				JOINT RightElbow
				{
					OFFSET	 0.000000	-11.900000	 0.000000
					CHANNELS 3 Zrotation Xrotation Yrotation
					JOINT RightWrist
					{
						OFFSET	 0.000000	-9.520000	 0.000000
						CHANNELS 3 Zrotation Xrotation Yrotation
						End Site 
						{
							OFFSET	 0.000000	-7.140012	 0.000000
						}
					}
				}
			}
		}
		JOINT Neck
		{
			OFFSET	 0.000000	 17.620001	 0.000000
			CHANNELS 3 Zrotation Xrotation Yrotation
			JOINT Head
			{
				OFFSET	 0.000000	 5.190000	 0.000000
				CHANNELS 3 Zrotation Xrotation Yrotation
				End Site 
				{
					OFFSET	 0.000000	 4.140008	 0.000000
				}
			}
		}
	}
}

MOTION
Frames: 28
Frame Time: 0.033333
-38.7158 2.1007 -48.6314 7.18662 -4.17423 49.7243 11.8635 5.25921 6.0811 -2.88884 6.85996 0.953023 -16.1457 -2.03792 -2.39802 -18.18 8.82392 -15.2797 4.90539 13.0015 -4.0929 6.72912 -6.76002 2.02297 1.39158 10.1269 4.37682 0 0 0 13.7803 0.756599 9.31122 -90.6734 -40.8122 -65.2927 21.2752 -12.2571 -9.0042 0 0 0 -16.4127 -8.76724 0.65212 65.6818 -63.4967 50.4699 -28.9961 -33.2835 22.3871 0 0 0 0.350976 10.899 37.4243 
-38.6754 2.1094 -48.6753 7.19879 -4.16326 49.6343 11.5205 5.13252 5.50825 -2.9082 6.80839 1.04165 -15.8491 -2.08243 -1.74846 -18.8972 8.27224 -15.6632 5.2064 13.8935 -3.87998 6.95896 -6.74016 2.35337 1.35211 10.211 4.4112 0 0 0 14.0975 0.677696 9.83339 -91.3268 -40.7278 -65.7748 19.7152 -11.2492 -10.6258 0 0 0 -16.4716 -8.57137 0.580989 65.9946 -63.4974 50.771 -29.0921 -33.6554 23.0521 0 0 0 0.50645 10.8151 37.225 
-38.6338 2.1212 -48.7251 7.18937 -4.17305 49.5195 11.2398 5.03512 5.14752 -2.8991 6.758 0.99159 -15.5993 -2.12287 -1.1598 -19.4947 7.80714 -16.0611 5.42784 14.6974 -3.78275 7.42908 -6.47132 2.90935 1.33933 10.3319 4.36521 0 0 0 14.3328 0.600111 10.2278 -91.7232 -40.4744 -66.1501 19.0723 -10.8594 -11.9716 0 0 0 -16.4888 -8.49662 0.61495 66.1357 -63.5011 50.9092 -29.117 -33.8665 23.5804 0 0 0 0.580134 10.685 37.1702 
-38.5764 2.1371 -48.7908 7.15211 -4.18712 49.2888 11.0367 4.97709 4.89259 -2.90869 6.68419 0.998991 -15.3982 -2.16157 -0.635552 -19.895 7.44252 -16.3157 5.51448 15.3463 -3.67967 7.87471 -6.25613 3.46466 1.33512 10.5654 4.24042 0 0 0 14.6071 0.56341 10.2242 -91.5614 -40.0956 -66.1835 19.3292 -11.1832 -12.4272 0 0 0 -16.4792 -8.64114 0.812726 66.2094 -63.4919 50.9723 -29.2934 -33.9296 24.0338 0 0 0 0.581176 10.4364 37.4 
-38.4559 2.1697 -48.9491 7.03766 -4.18165 48.7986 10.6222 4.85042 4.49282 -2.9048 6.54269 1.06182 -15.0117 -2.24867 0.281317 -20.7597 6.592 -16.6648 5.74843 16.5938 -3.39369 8.50268 -6.15017 4.43498 1.35955 11.006 4.03025 0 0 0 15.2225 0.410391 10.5153 -92.1393 -40.0986 -66.8151 18.8172 -10.5412 -13.5294 0 0 0 -16.5046 -8.91864 1.27026 66.4257 -63.5325 51.1885 -29.9844 -34.1347 25.0116 0 0 0 0.586254 9.89175 37.7452 
-38.2902 2.225 -49.1299 6.85541 -4.17175 48.0479 10.256 4.66804 4.33862 -2.88146 6.41404 1.09516 -14.6631 -2.31156 1.24441 -21.5413 5.68109 -16.7933 5.91234 17.6973 -3.05553 9.10835 -6.03972 5.32464 1.35947 11.4251 3.89418 0 0 0 16.0064 0.535677 10.78 -92.7688 -40.0117 -67.4807 19.0522 -10.4763 -14.0481 0 0 0 -16.3845 -9.35364 1.78504 66.6256 -63.4798 51.4144 -30.2465 -34.1614 26.2957 0 0 0 0.544409 9.33672 38.264 
-38.147 2.2702 -49.2881 6.64468 -4.16746 47.3037 9.98841 4.47219 4.27153 -2.88145 6.29024 1.10465 -14.3604 -2.34177 2.13678 -21.8541 5.12102 -16.7343 5.91879 18.2357 -2.82509 9.53335 -5.88741 5.99011 1.37864 11.7922 3.76926 0 0 0 16.6156 0.771101 10.2881 -92.6985 -40.0044 -67.5125 20.2022 -11.399 -13.9273 0 0 0 -16.178 -9.93442 2.27432 66.588 -63.3805 51.4354 -29.938 -33.9166 27.5402 0 0 0 0.43018 8.87844 38.8705 
-38.0139 2.3078 -49.4412 6.43897 -4.15086 46.5634 9.80337 4.26624 4.43431 -2.89205 6.17047 1.05069 -14.1141 -2.29356 2.85269 -22.0088 4.61638 -16.5873 5.8337 18.5552 -2.65026 9.67545 -5.91546 6.1357 1.3651 12.1039 3.61323 0 0 0 17.131 0.921136 9.80938 -92.4108 -40.0807 -67.398 21.8895 -12.7766 -13.4572 0 0 0 -15.8839 -10.5479 2.87258 66.523 -63.3302 51.4276 -29.6808 -33.7009 28.5851 0 0 0 0.298666 8.42266 39.2954 
-37.9034 2.343 -49.5744 6.26415 -4.09883 45.8663 9.74489 4.22933 4.74064 -2.87865 6.05916 1.01216 -14.0623 -2.33203 3.29913 -21.9366 4.3694 -16.2512 5.61234 18.3698 -2.73823 9.78438 -5.77557 6.33398 1.19031 12.2374 3.50299 0 0 0 17.7677 1.31232 9.24935 -92.1898 -40.1988 -67.3695 24.0574 -14.4573 -12.2157 0 0 0 -15.3908 -11.0684 3.57305 66.4586 -63.3114 51.4183 -29.4723 -33.5294 29.642 0 0 0 0.257388 8.15294 39.536 
-37.818 2.3606 -49.6798 6.12958 -4.03872 45.2058 9.74862 4.24808 5.03838 -2.88466 5.9562 1.05278 -14.0832 -2.37018 3.6137 -21.6606 4.36953 -15.8806 5.292 17.7011 -2.77487 9.6242 -5.70727 6.32558 0.903351 12.2225 3.5164 0 0 0 18.4614 1.80965 8.63744 -92.0219 -40.5143 -67.2713 25.9327 -15.9032 -10.7682 0 0 0 -14.8115 -11.4665 4.24651 66.378 -63.2794 51.3929 -29.3593 -33.3886 30.6156 0 0 0 0.292566 8.03235 39.6525 
-37.7729 2.3731 -49.7426 6.03852 -3.96755 44.6943 9.78729 4.29644 5.38227 -2.87306 5.89624 1.0401 -14.1749 -2.41996 3.76857 -21.3665 4.53958 -15.4886 5.01255 16.7636 -2.8639 9.37278 -5.61838 6.13167 0.585669 12.108 3.66964 0 0 0 18.9644 2.21922 8.52664 -92.291 -40.933 -67.408 26.9407 -16.6355 -9.91167 0 0 0 -14.2706 -11.7253 4.75923 66.2625 -63.2801 51.3469 -29.2035 -33.279 31.4647 0 0 0 0.376601 8.0296 39.4502 
-37.7729 2.3706 -49.7376 6.05649 -3.9294 44.409 9.92046 4.42813 5.70769 -2.8593 5.86801 1.00145 -14.3824 -2.45356 3.708 -21.0769 4.91076 -15.1973 4.7751 15.6885 -3.03278 9.08582 -5.36119 5.71378 0.21279 11.9197 3.92608 0 0 0 19.1112 2.58971 8.86793 -92.4234 -40.845 -67.4478 27.202 -16.9924 -9.62503 0 0 0 -13.8529 -11.781 5.09377 66.2064 -63.3115 51.2865 -29.3504 -33.1701 31.9876 0 0 0 0.573706 8.1509 38.9181 
-37.8432 2.343 -49.6874 6.15405 -3.92215 44.382 10.1291 4.57897 5.91816 -2.88342 5.86678 1.01652 -14.6304 -2.4326 3.44551 -20.7703 5.4388 -15.0592 4.56125 14.585 -3.30037 8.77548 -5.05229 5.34071 -0.110624 11.7023 4.11211 0 0 0 18.9715 2.69985 9.31894 -92.5586 -40.7586 -67.4338 26.708 -16.8281 -9.93634 0 0 0 -13.6419 -11.7358 5.37048 66.1301 -63.2985 51.2235 -30.0031 -33.1365 32.0471 0 0 0 0.81934 8.30665 38.2687 
-37.9185 2.3179 -49.6221 6.24351 -3.92209 44.3695 10.3909 4.74802 6.17527 -2.88968 5.87101 1.05745 -14.9328 -2.39362 3.0889 -20.428 6.00817 -14.8505 4.36987 13.4048 -3.61008 8.49189 -4.72424 4.99943 -0.416917 11.4865 4.3109 0 0 0 18.7432 2.83028 9.72718 -92.7094 -40.6443 -67.4804 26.1097 -16.5434 -10.5052 0 0 0 -13.6731 -11.6557 5.75772 66.1624 -63.3379 51.1813 -30.8558 -33.0711 31.8795 0 0 0 1.0727 8.43601 37.6571 
-38.0139 2.2902 -49.5367 6.31561 -3.93872 44.4136 10.7199 4.86863 6.48189 -2.92337 5.87746 1.08058 -15.244 -2.28993 2.66113 -20.0092 6.5999 -14.6036 4.18503 12.2027 -3.87345 8.38531 -4.18172 4.96315 -0.655079 11.3021 4.50565 0 0 0 18.384 2.80529 10.0345 -92.8675 -40.5063 -67.5656 25.5223 -16.0675 -11.2458 0 0 0 -13.924 -11.6504 6.1366 66.1215 -63.3384 51.0664 -32.0377 -32.8718 31.255 0 0 0 1.31603 8.46541 37.2479 
-38.0993 2.2677 -49.4588 6.34595 -3.97663 44.4673 11.0784 4.94676 6.85526 -2.95678 5.88705 1.08382 -15.5234 -2.13854 2.19023 -19.6403 7.10182 -14.369 4.10142 11.2564 -3.93572 8.26691 -3.86115 4.71042 -0.721624 11.2506 4.64587 0 0 0 17.889 2.62281 10.2631 -93.0416 -40.3043 -67.687 24.936 -15.3735 -12.0905 0 0 0 -14.4123 -11.7004 6.51392 66.0126 -63.328 50.8936 -33.4058 -32.5985 30.3527 0 0 0 1.44801 8.36532 37.0072 
-38.1822 2.2526 -49.381 6.34759 -4.02209 44.5337 11.4544 4.98128 7.23859 -2.97921 5.90451 1.10426 -15.8023 -1.95605 1.69239 -19.338 7.46871 -13.9893 4.11388 10.5665 -4.05548 8.14694 -3.67496 4.36068 -0.677446 11.2789 4.72139 0 0 0 17.3261 2.31317 10.3781 -93.129 -40.0729 -67.7787 24.5835 -14.7391 -12.8322 0 0 0 -15.0054 -11.7878 6.88907 65.9896 -63.3099 50.8173 -34.8534 -32.314 29.3561 0 0 0 1.51709 8.18983 36.8347 
-38.2726 2.24 -49.2931 6.31848 -4.07542 44.6126 11.8497 4.96069 7.60606 -3.00233 5.90916 1.12789 -16.0541 -1.73452 1.20645 -19.0396 7.70826 -13.6743 4.14776 10.0513 -4.16382 8.00918 -3.54518 4.04245 -0.56766 11.2403 4.7129 0 0 0 16.8555 2.05131 10.1051 -93.1941 -40.0226 -67.8446 24.5436 -14.3367 -13.4303 0 0 0 -15.6016 -11.7835 7.27093 65.9757 -63.2737 50.7606 -36.3376 -32.085 28.3104 0 0 0 1.54624 8.05946 36.7253 
-38.3655 2.225 -49.2052 6.29592 -4.13635 44.7081 12.1864 4.94974 7.88087 -3.02637 5.90389 1.16428 -16.2556 -1.52705 0.799284 -18.7864 7.89873 -13.4216 4.167 9.69311 -4.23963 7.90917 -3.47412 3.76002 -0.428301 11.1387 4.63245 0 0 0 16.5877 1.88734 9.57814 -93.1682 -40.027 -67.8472 25.2542 -14.6862 -13.75 0 0 0 -16.0965 -11.6988 7.60376 65.9932 -63.1951 50.7972 -37.3989 -32.008 27.3995 0 0 0 1.55654 8.00674 36.6849 
-38.4509 2.2149 -49.1173 6.26556 -4.19621 44.7842 12.4633 4.94537 8.07165 -3.03394 5.87398 1.16984 -16.4182 -1.36024 0.523347 -18.5566 8.07591 -13.2338 4.18958 9.38961 -4.26322 7.82159 -3.43804 3.51393 -0.252394 10.9896 4.48358 0 0 0 16.379 1.82579 8.9934 -93.0057 -40.0376 -67.7705 26.4919 -15.3154 -13.7997 0 0 0 -16.481 -11.5351 7.89035 65.9636 -63.201 50.7617 -38.0135 -31.9518 26.7408 0 0 0 1.49622 8.07543 36.7057 
-38.5388 2.2049 -49.0344 6.22875 -4.2576 44.8358 12.708 4.92713 8.23404 -3.05231 5.83525 1.14091 -16.5404 -1.20498 0.344376 -18.3319 8.22397 -13.1152 4.17776 9.15735 -4.24358 7.75592 -3.42526 3.31904 -0.04561 10.8023 4.26837 0 0 0 16.2244 1.8256 8.46573 -92.8075 -40.0864 -67.6067 27.8712 -16.0883 -13.6393 0 0 0 -16.5857 -11.3797 8.0315 65.8957 -63.1028 50.8103 -38.3888 -31.899 26.333 0 0 0 1.38184 8.21555 36.7576 
-38.6166 2.1948 -48.9641 6.19844 -4.33767 44.8264 12.9101 4.97011 8.35895 -3.04302 5.80686 1.13864 -16.6553 -1.11829 0.220142 -18.1391 8.38634 -13.0386 4.15511 8.987 -4.261 7.72549 -3.45263 3.28407 0.186262 10.5806 4.04936 0 0 0 16.1309 2.01086 7.99966 -92.5559 -40.1406 -67.3641 29.2095 -16.9654 -13.3979 0 0 0 -16.4731 -11.1696 8.05588 65.7914 -63.0268 50.8392 -38.4812 -31.8532 26.2485 0 0 0 1.25508 8.50359 36.8707 
-38.6819 2.1798 -48.8863 6.15125 -4.4464 44.7378 13.1145 5.02394 8.51164 -3.02667 5.78897 1.1367 -16.7562 -1.0533 0.137423 -17.9376 8.51947 -12.9698 4.1432 8.8618 -4.281 7.68261 -3.49224 3.32077 0.455214 10.3725 3.78636 0 0 0 16.0209 2.27233 7.74022 -92.2407 -40.2376 -67.032 30.4758 -17.9021 -13.2192 0 0 0 -16.2595 -11.0237 8.04133 65.734 -62.9518 50.9167 -38.3904 -31.7842 26.3446 0 0 0 1.1033 8.76568 37.1343 
-38.7372 2.1647 -48.8134 6.08773 -4.56564 44.5777 13.3296 5.10514 8.682 -3.02773 5.74977 1.14104 -16.8413 -0.997699 0.0966147 -17.7424 8.621 -12.9134 4.12044 8.76403 -4.25669 7.65238 -3.53097 3.40547 0.747877 10.1101 3.52267 0 0 0 15.9166 2.6803 7.59746 -91.9697 -40.3729 -66.7285 31.7076 -18.8889 -13.0833 0 0 0 -15.977 -10.8827 7.98838 65.584 -62.9087 50.8861 -38.0489 -31.6962 26.5821 0 0 0 0.960921 9.08653 37.4349 
-38.7698 2.1446 -48.7632 6.05465 -4.71396 44.3962 13.5073 5.23207 8.8114 -3.02815 5.72016 1.14711 -16.9072 -0.971098 0.112316 -17.5771 8.73771 -12.828 4.11129 8.68684 -4.2292 7.61954 -3.56029 3.49245 1.01197 9.87919 3.28222 0 0 0 15.8021 3.13298 7.62797 -91.6997 -40.406 -66.4322 32.8323 -19.7581 -12.9994 0 0 0 -15.6804 -10.7659 7.90704 65.4937 -62.8506 50.9 -37.5239 -31.5792 26.9246 0 0 0 0.839097 9.41183 37.7372 
-38.7874 2.132 -48.718 6.00076 -4.83863 44.177 13.667 5.35487 8.95148 -3.02245 5.70328 1.14045 -16.967 -0.988396 0.156523 -17.4292 8.82569 -12.7282 4.10772 8.61262 -4.20298 7.59513 -3.59693 3.59339 1.26435 9.63649 3.06083 0 0 0 15.7052 3.60456 7.65684 -91.4843 -40.4663 -66.1594 33.6597 -20.3888 -12.9526 0 0 0 -15.4069 -10.6394 7.81405 65.4303 -62.8163 50.9201 -37.0241 -31.4095 27.2176 0 0 0 0.720348 9.75579 38.0422 
-38.7899 2.1145 -48.6854 5.94902 -4.96994 43.9062 13.8178 5.51521 9.11515 -3.00083 5.68836 1.09791 -17.0434 -1.04199 0.252642 -17.304 8.90469 -12.606 4.11446 8.54945 -4.17912 7.5667 -3.6275 3.73429 1.51094 9.34442 2.85147 0 0 0 15.6441 4.14747 7.5175 -91.3347 -40.7262 -65.9372 34.2062 -20.8684 -12.9153 0 0 0 -15.1202 -10.5135 7.72954 65.3326 -62.7022 50.8951 -36.6233 -31.2067 27.4221 0 0 0 0.59922 10.1311 38.3593 
-38.7748 2.1069 -48.6653 5.8922 -5.08284 43.6143 13.9439 5.67037 9.28835 -2.97078 5.68314 1.058 -17.1189 -1.11958 0.358468 -17.2086 8.94898 -12.4651 4.1349 8.49772 -4.16551 7.53908 -3.6573 3.88472 1.72073 9.06598 2.71535 0 0 0 15.6062 4.63705 7.36915 -91.2121 -40.9742 -65.7694 34.6479 -21.2049 -12.8946 0 0 0 -14.8987 -10.3837 7.70046 65.1726 -62.6862 50.752 -36.2758 -31.015 27.5746 0 0 0 0.502701 10.4713 38.6463 
